<svg 
 aria-hidden="true" 
 xmlns="http://www.w3.org/2000/svg">
<defs>
<!-- telefono -->
<symbol id="telefono" viewBox="0 0 20 32">
<path d="M17 0h-14c-1.654 0-3 1.346-3 3v26c0 1.654 1.346 3 3 3h14c1.654 0 3-1.346 3-3v-26c0-1.654-1.346-3-3-3zM3 2h14c0.552 0 1 0.448 1 1v21h-16v-21c0-0.552 0.448-1 1-1zM17 30h-14c-0.552 0-1-0.448-1-1v-3h16v3c0 0.552-0.448 1-1 1z"></path>
<path d="M4.707 27.478c0.391 0.365 0.391 0.956 0 1.321s-1.024 0.365-1.414 0c-0.391-0.365-0.391-0.956 0-1.321s1.024-0.365 1.414 0z"></path>
</symbol>
<!-- email -->
<symbol id="sobre" viewBox="0 0 43 32">
<path d="M38.667 0h-34.667c-2.206 0-4 1.794-4 4v24c0 2.206 1.794 4 4 4h34.667c2.206 0 4-1.794 4-4v-24c0-2.206-1.794-4-4-4v0zM38.667 2.667c0.181 0 0.353 0.038 0.511 0.103l-17.844 15.466-17.844-15.466c0.158-0.066 0.33-0.103 0.511-0.103h34.667zM38.667 29.333h-34.667c-0.736 0-1.333-0.598-1.333-1.333v-22.413l17.793 15.421c0.251 0.217 0.563 0.326 0.874 0.326s0.622-0.108 0.874-0.326l17.793-15.421v22.413c0 0.736-0.598 1.333-1.333 1.333v0z"></path>
</symbol>


<!-- Antena  -->
    <symbol id="Antena">
      <path d="M67.3163 48.3385L48.8468 29.7337L50.8966 19.6373C51.4256 19.8438 51.9879 19.9517 52.5556 19.9558H52.5696C55.1777 19.9866 57.3169 17.8974 57.3479 15.2893C57.3788 12.6812 55.2894 10.542 52.6813 10.5111C50.0732 10.4803 47.934 12.5695 47.9031 15.1776C47.8965 15.7357 47.9888 16.2905 48.176 16.8163L37.326 18.1405L19.6276 0.35C19.4105 0.128479 19.1141 0.00247917 18.804 0C18.4977 0.00160417 18.2044 0.123521 17.9873 0.3395L14.6786 3.6295C14.2232 4.08508 14.2232 4.82358 14.6786 5.27917L16.459 7.08517C9.56162 19.7681 11.8019 35.4741 21.9703 45.7228C22.0636 45.8121 22.1718 45.8843 22.29 45.9363C22.2165 46.3311 22.1781 46.7317 22.1756 47.1333V60.6667H8.17562C4.95562 60.6705 2.34608 63.28 2.34229 66.5V68.8333C2.34229 69.4776 2.86466 70 3.50895 70H57.1756C57.8199 70 58.3423 69.4776 58.3423 68.8333V66.5C58.3385 63.28 55.729 60.6705 52.509 60.6667H38.509V54.6688C40.7021 55.1288 42.9367 55.3633 45.1776 55.3688C50.5548 55.363 55.8464 54.0225 60.5776 51.4675L62.3673 53.2677C62.5844 53.4892 62.8808 53.6152 63.191 53.6177C63.4972 53.6161 63.7905 53.4941 64.0076 53.2782L67.3163 49.9882C67.7717 49.5326 67.7717 48.7941 67.3163 48.3385ZM50.9246 13.6348C51.8383 12.726 53.3157 12.7301 54.2244 13.6437C55.1332 14.5574 55.1291 16.0348 54.2155 16.9435C53.7781 17.3785 53.1864 17.6226 52.5695 17.6225H52.5625C51.2739 17.6158 50.2345 16.5658 50.2412 15.2771C50.2445 14.6602 50.4918 14.0699 50.9291 13.6348H50.9246ZM48.1783 21.301L46.8693 27.7445L44.298 25.158L48.1783 21.301ZM46.853 19.3282L42.653 23.5037L39.4038 20.237L46.853 19.3282ZM52.509 63C54.442 63 56.009 64.567 56.009 66.5V67.6667H4.67562V66.5C4.67562 64.567 6.2426 63 8.17562 63H52.509ZM36.1756 58.3333V60.6667H24.509V58.3333H36.1756ZM24.509 56V47.1333C24.509 44.303 27.1258 42 30.3423 42C33.5588 42 36.1756 44.303 36.1756 47.1333V56H24.509ZM38.509 52.29V47.1333C38.509 43.0162 34.8456 39.6667 30.3423 39.6667C27.4306 39.622 24.7079 41.1041 23.165 43.5738C14.2887 34.2249 12.2899 20.2875 18.1805 8.82073L58.872 49.7455C52.5886 52.9419 45.3857 53.8418 38.509 52.29ZM63.2038 50.7943L61.56 49.1412L18.7923 6.11567L17.1415 4.46133L18.7923 2.81633L36.15 20.272C36.1581 20.272 36.1628 20.2872 36.171 20.293L64.8593 49.1493L63.2038 50.7943Z" fill="#212121"/>
      <path d="M30.3528 44.3333H30.3423C28.4093 44.3304 26.84 45.895 26.837 47.8281C26.8341 49.7611 28.3988 51.3304 30.3318 51.3333H30.3423C32.2753 51.3362 33.8446 49.7716 33.8475 47.8386C33.8505 45.9055 32.2858 44.3362 30.3528 44.3333ZM31.1695 48.6605C30.9498 48.8789 30.6522 49.0012 30.3423 49C29.698 48.9966 29.1784 48.4716 29.1817 47.8273C29.1834 47.5189 29.307 47.2237 29.5256 47.0062C29.7428 46.7902 30.036 46.6683 30.3423 46.6667C30.9866 46.67 31.5062 47.195 31.5028 47.8393C31.5012 48.1477 31.3776 48.4429 31.159 48.6605H31.1695Z" fill="#2196F3"/>
    </symbol>
    <!-- Clock  -->
    <symbol id="Reloj">
      <g clip-path="url(#clip0_1_344)">
      <path d="M68.4614 33.4715C68.4576 14.9819 53.4656 -0.00373771 34.9754 6.99302e-07C16.4858 0.00373911 1.50017 14.9963 1.50391 33.4859C1.50711 48.0502 10.9252 60.9413 24.7995 65.3713C24.9319 65.413 25.0697 65.4343 25.2081 65.4338C25.4719 65.4333 25.7304 65.3628 25.9573 65.2287C26.2527 65.0541 26.4732 64.7764 26.5768 64.449L35.0315 37.6521C37.3429 37.6404 39.2068 35.7568 39.1945 33.4459C39.1827 31.1345 37.2997 29.2706 34.9883 29.2824C34.3666 29.285 33.753 29.4282 33.1944 29.7011L22.0251 18.5302C21.4707 17.9951 20.5879 18.0106 20.0528 18.5644C19.5305 19.1054 19.5305 19.962 20.0528 20.503L31.2162 31.6792C30.3596 33.4277 30.8493 35.5383 32.3895 36.7303L24.3338 62.2647C8.41354 56.4002 0.261689 38.7405 6.12618 22.8203C11.9907 6.90002 29.6503 -1.25183 45.5706 4.61266C61.4909 10.4771 69.6427 28.1374 63.7782 44.0571C60.913 51.8351 55.0261 58.1252 47.4548 61.4989L46.5842 57.3989C46.4251 56.6454 45.6844 56.1636 44.9308 56.3233C44.6931 56.3741 44.4726 56.4857 44.291 56.6475L35.8978 64.1409C35.322 64.653 35.2708 65.5347 35.7835 66.1105C35.9501 66.2974 36.1637 66.4362 36.403 66.5126L47.1188 69.9327C47.8521 70.1682 48.6377 69.765 48.8732 69.0312C48.948 68.7994 48.9603 68.5527 48.9101 68.3145L48.0545 64.2915C60.4452 59.0678 68.4902 46.918 68.4614 33.4715ZM34.9829 32.0766C35.753 32.0766 36.3779 32.7014 36.3779 33.4715C36.3779 34.2422 35.753 34.8665 34.9829 34.8665C34.2123 34.8665 33.588 34.2422 33.588 33.4715C33.588 32.7014 34.2123 32.0766 34.9829 32.0766ZM39.5774 64.5916L44.3551 60.3298L45.6737 66.543L39.5774 64.5916Z" fill="#212121"/>
      <path d="M33.5879 6.96729V9.7572C33.5879 10.5278 34.2122 11.1522 34.9828 11.1522C35.753 11.1522 36.3778 10.5278 36.3778 9.7572V6.96729C36.3778 6.19717 35.753 5.57233 34.9828 5.57233C34.2122 5.57233 33.5879 6.19717 33.5879 6.96729Z" fill="#2196F3"/>
      <path d="M8.4787 32.0765C7.70805 32.0765 7.08374 32.7014 7.08374 33.4715C7.08374 34.2421 7.70805 34.8665 8.4787 34.8665H11.2686C12.0393 34.8665 12.6636 34.2421 12.6636 33.4715C12.6636 32.7014 12.0393 32.0765 11.2686 32.0765H8.4787Z" fill="#2196F3"/>
      <path d="M61.4865 34.8665C62.2572 34.8665 62.8815 34.2421 62.8815 33.4715C62.8815 32.7014 62.2572 32.0765 61.4865 32.0765H58.6966C57.9265 32.0765 57.3016 32.7014 57.3016 33.4715C57.3016 34.2421 57.9265 34.8665 58.6966 34.8665H61.4865Z" fill="#2196F3"/>
      </g>
      <defs>
      <clipPath id="clip0_1_344">
      <rect width="70" height="70" fill="white"/>
      </clipPath>
      </defs>
    </symbol>
    <!-- Diagram  -->
    <symbol id="Diagrama">
      <g clip-path="url(#clip0_1_354)">
        <path d="M32.6496 32.7351H34.9817V43.2296H32.6496V32.7351Z" fill="#2196F3"/>
        <path d="M41.978 37.3993H44.3101V43.2296H41.978V37.3993Z" fill="#2196F3"/>
        <path d="M23.3211 40.8975H25.6532V43.2296H23.3211V40.8975Z" fill="#2196F3"/>
        <path d="M16.3248 39.7314H18.6569V43.2295H16.3248V39.7314Z" fill="#2196F3"/>
        <path d="M3.49817 61.8865H59.4689C61.4007 61.8865 62.967 60.3202 62.967 58.3883V53.7241C62.967 51.7923 61.4007 50.2259 59.4689 50.2259H58.3028V21.1469L64.9262 14.8725C66.4635 15.6303 68.3242 15.1702 69.3302 13.7816C70.3369 12.3935 70.1957 10.4821 68.9966 9.25684C67.7975 8.03157 65.8901 7.8488 64.4798 8.82412C63.0701 9.80001 62.569 11.6499 63.2933 13.2037L58.3028 17.9345V15.2443C58.3028 13.3124 56.7365 11.7461 54.8046 11.7461H8.16239C6.23054 11.7461 4.66422 13.3124 4.66422 15.2443V50.2259H3.49817C1.56632 50.2259 0 51.7923 0 53.7241V58.3883C0 60.3202 1.56632 61.8865 3.49817 61.8865ZM66.4652 10.58C67.1091 10.58 67.6312 11.1021 67.6312 11.7461C67.6312 12.39 67.1091 12.9121 66.4652 12.9121C65.8212 12.9121 65.2991 12.39 65.2991 11.7461C65.2991 11.1021 65.8212 10.58 66.4652 10.58ZM6.99634 15.2443C6.99634 14.6003 7.51844 14.0782 8.16239 14.0782H54.8046C55.4486 14.0782 55.9707 14.6003 55.9707 15.2443V20.1414L53.6386 22.3573V17.5764C53.6386 16.9324 53.1165 16.4103 52.4725 16.4103H10.4945C9.85055 16.4103 9.32845 16.9324 9.32845 17.5764V46.7278C9.32845 47.3717 9.85055 47.8938 10.4945 47.8938H52.4725C53.1165 47.8938 53.6386 47.3717 53.6386 46.7278V25.5651L55.9707 23.3554V50.2259H6.99634V15.2443ZM17.4908 30.403C15.9131 30.3984 14.5279 31.4495 14.1083 32.9703C13.6886 34.491 14.3383 36.104 15.6951 36.9091C17.0513 37.7142 18.7793 37.5121 19.9129 36.4149L23.9662 38.4487C24.4371 38.6844 25.0081 38.5739 25.3583 38.1805L33.9745 28.4871L42.4443 34.8338C42.8987 35.1743 43.5329 35.1378 43.9452 34.7478L51.3065 27.7748V45.5617H11.6606V18.7424H51.3065V24.5619L43.0564 32.3747L34.5154 25.9716C34.0303 25.6084 33.3476 25.6767 32.9445 26.1294L24.2099 35.9571L20.9446 34.3242C20.9685 34.1841 20.9833 34.0429 20.989 33.9012C20.989 31.9693 19.4227 30.403 17.4908 30.403ZM18.6569 33.9012C18.6569 34.5451 18.1348 35.0672 17.4908 35.0672C16.8469 35.0672 16.3248 34.5451 16.3248 33.9012C16.3248 33.2572 16.8469 32.7351 17.4908 32.7351C18.1348 32.7351 18.6569 33.2572 18.6569 33.9012ZM25.6532 52.5581H37.3138V53.7241C37.3138 54.3681 36.7917 54.8902 36.1477 54.8902H26.8193C26.1753 54.8902 25.6532 54.3681 25.6532 53.7241V52.5581ZM2.33211 53.7241C2.33211 53.0802 2.85422 52.5581 3.49817 52.5581H23.3211V53.7241C23.3211 55.656 24.8874 57.2223 26.8193 57.2223H36.1477C38.0796 57.2223 39.6459 55.656 39.6459 53.7241V52.5581H59.4689C60.1128 52.5581 60.6349 53.0802 60.6349 53.7241V58.3883C60.6349 59.0323 60.1128 59.5544 59.4689 59.5544H3.49817C2.85422 59.5544 2.33211 59.0323 2.33211 58.3883V53.7241Z" fill="#212121"/>
      </g>
      <defs>
        <clipPath id="clip0_1_354">
          <rect width="70" height="70" fill="white"/>
        </clipPath>
      </defs>
    </symbol>
    <!-- Astrononaut -->
    <symbol id="Astronauta">
      <path d="M69.9433 9.89637C69.8056 9.47513 69.4416 9.16724 69.0018 9.10298L64.8228 8.49512L62.9526 4.70809C62.5606 3.91005 61.2527 3.91005 60.8608 4.70809L58.9906 8.49512L54.8114 9.10312C54.3716 9.16724 54.0076 9.47418 53.8687 9.89651C53.7323 10.3188 53.8453 10.7831 54.1639 11.0924L57.1891 14.0407L56.4752 18.2034C56.4005 18.6409 56.5802 19.0831 56.9384 19.3445C57.3012 19.6082 57.7748 19.6407 58.168 19.4331L61.9061 17.4672L65.6442 19.4331C65.8146 19.5229 66.0024 19.5672 66.1879 19.5672C66.4294 19.5672 66.671 19.4925 66.874 19.3443C67.2333 19.0831 67.413 18.6408 67.3372 18.2033L66.6233 14.0405L69.6485 11.0923C69.9654 10.7819 70.0798 10.3187 69.9433 9.89637ZM64.5556 12.7991C64.2815 13.0662 64.1555 13.4536 64.2208 13.8316L64.6385 16.2688L62.4499 15.1184C62.2795 15.0286 62.0929 14.9843 61.9061 14.9843C61.7195 14.9843 61.534 15.0286 61.3624 15.1184L59.1736 16.2688L59.5913 13.8316C59.6567 13.4536 59.5306 13.0675 59.2565 12.7991L57.4843 11.0724L59.932 10.7166C60.3124 10.6617 60.6402 10.4226 60.8106 10.0783L61.9049 7.86169L62.9992 10.0783C63.1696 10.4225 63.4974 10.6617 63.8778 10.7166L66.3255 11.0724L64.5556 12.7991Z" fill="#2196F3"/>
      <path d="M57.167 44.8923H54.8336V47.2257H57.167V44.8923Z" fill="#2196F3"/>
      <path d="M57.167 49.5591H54.8336V51.8925H57.167V49.5591Z" fill="#2196F3"/>
      <path d="M59.5004 47.2257H57.167V49.5591H59.5004V47.2257Z" fill="#2196F3"/>
      <path d="M54.8337 47.2257H52.5003V49.5591H54.8337V47.2257Z" fill="#2196F3"/>
      <path d="M49.0002 57.7259H46.6668V60.0593H49.0002V57.7259Z" fill="#2196F3"/>
      <path d="M49.0002 62.3926H46.6668V64.726H49.0002V62.3926Z" fill="#2196F3"/>
      <path d="M51.3337 60.0593H49.0002V62.3927H51.3337V60.0593Z" fill="#2196F3"/>
      <path d="M46.6668 60.0593H44.3334V62.3927H46.6668V60.0593Z" fill="#2196F3"/>
      <path d="M35 53.0592H32.6666V55.3926H35V53.0592Z" fill="#2196F3"/>
      <path d="M35 57.7259H32.6666V60.0593H35V57.7259Z" fill="#2196F3"/>
      <path d="M37.3334 55.3925H35V57.7259H37.3334V55.3925Z" fill="#2196F3"/>
      <path d="M32.6666 55.3925H30.3332V57.7259H32.6666V55.3925Z" fill="#2196F3"/>
      <path d="M12.833 13.3918H10.4996V15.7252H12.833V13.3918Z" fill="#2196F3"/>
      <path d="M12.833 18.0587H10.4996V20.3921H12.833V18.0587Z" fill="#2196F3"/>
      <path d="M15.1663 15.7252H12.8329V18.0586H15.1663V15.7252Z" fill="#2196F3"/>
      <path d="M10.4996 15.7252H8.1662V18.0586H10.4996V15.7252Z" fill="#2196F3"/>
      <path d="M54.0635 30.9738C53.4347 30.1256 52.5119 29.5797 51.4642 29.4326C50.4118 29.2833 49.3734 29.5597 48.5334 30.2026L45.7952 32.3014L45.794 32.3026L41.6428 35.4025L38.6724 34.2194C43.9691 31.8429 47.6711 26.545 47.6711 20.3942C47.6711 12.0314 40.8401 5.22736 32.4436 5.22736C24.047 5.22736 17.2161 12.0314 17.2161 20.3942C17.2161 23.4253 18.1226 26.2439 19.6662 28.6158L13.6204 28.5633C13.6168 28.5633 13.6134 28.5633 13.6099 28.5633C13.5911 28.5633 13.5761 28.5726 13.5586 28.5738C13.4431 28.5785 13.3298 28.6018 13.2191 28.6415C13.1911 28.652 13.162 28.6579 13.1352 28.6706C13.1212 28.6765 13.1071 28.6776 13.0932 28.6846L6.02075 32.1764C6.01952 32.1764 6.01843 32.1764 6.01843 32.1775L1.8766 34.1693C1.83107 34.1891 1.78445 34.2159 1.73892 34.2462C0.0880191 35.3452 -0.474314 37.5036 0.429958 39.2676C0.911763 40.2056 1.73195 40.8963 2.73999 41.2124C3.12856 41.3337 3.52518 41.3933 3.91949 41.3933C4.55305 41.3933 5.18074 41.2381 5.75578 40.9313L8.79154 39.3167L13.7441 36.7593L16.7122 36.7418L4.80844 48.5884C4.80735 48.5896 4.80612 48.5896 4.80489 48.5907L1.87647 51.5074C1.18466 52.1958 0.8043 53.1092 0.8043 54.0835C0.8043 55.0565 1.18466 55.9723 1.87647 56.6619C2.587 57.3689 3.52149 57.7235 4.45598 57.7235C5.3917 57.7235 6.32495 57.3689 7.03782 56.6619L9.91251 53.7988L13.7206 50.9556L15.6912 52.9179L11.8375 56.7551C11.8364 56.7564 11.8352 56.7564 11.834 56.7575L8.90556 59.6741C8.21375 60.3625 7.8334 61.2759 7.8334 62.2502C7.8334 63.2233 8.21375 64.139 8.90556 64.8286C9.6161 65.5356 10.5518 65.8903 11.4863 65.8903C12.4208 65.8903 13.3565 65.5356 14.0681 64.8286L16.9977 61.912L21.6842 57.2453C21.6854 57.244 21.6854 57.2429 21.6865 57.2417L23.8951 55.0542L23.8869 55.046C23.9008 55.032 23.9207 55.0272 23.9347 55.0122L35.2353 42.6349L42.8281 43.7152C42.8829 43.7234 42.9377 43.7269 42.9925 43.7269C43.1338 43.7269 43.2702 43.6931 43.402 43.6429C43.4406 43.629 43.4743 43.6102 43.5106 43.5916C43.5526 43.5706 43.5968 43.559 43.6366 43.5322L50.6659 38.8655C50.6916 38.848 50.7055 38.8199 50.73 38.8013C50.758 38.7792 50.793 38.7699 50.8186 38.7453L53.5999 36.1401C55.0471 34.7841 55.2466 32.5628 54.0635 30.9738ZM4.66024 38.8722C4.28111 39.0752 3.85058 39.1159 3.43878 38.9854C3.03039 38.8582 2.69912 38.5793 2.50538 38.2025C2.15305 37.5164 2.35718 36.6811 2.97433 36.2296L5.84793 34.8471L6.53974 36.8689L6.83027 37.7182L4.66024 38.8722ZM12.3102 34.874L8.92333 36.6241L8.36456 34.9907L7.96328 33.8169L12.3967 31.6282L12.3102 34.874ZM45.3402 20.3919C45.3402 22.4009 44.8607 24.2957 44.03 25.9907L34.8832 21.8362C34.7875 20.5821 34.1366 19.4842 33.1589 18.8005L36.3614 8.16849C41.5626 9.82295 45.3402 14.6752 45.3402 20.3919ZM19.5519 20.3919C19.5519 13.3159 25.3363 7.55831 32.446 7.55831C32.9991 7.55831 33.5403 7.60493 34.0759 7.67261L30.9433 18.0713C30.9014 18.0701 30.8617 18.0585 30.8185 18.0585C28.5597 18.0585 26.7222 19.8901 26.7222 22.1419C26.7222 24.3936 28.5597 26.2254 30.8185 26.2254C32.3375 26.2254 33.65 25.3866 34.3582 24.1591L42.8073 27.9975C40.4564 31.1615 36.6938 33.2255 32.4459 33.2255C25.3363 33.2255 19.5519 27.4679 19.5519 20.3919ZM32.5814 22.1419C32.5814 23.1068 31.7903 23.8919 30.8185 23.8919C29.8467 23.8919 29.0556 23.1068 29.0556 22.1419C29.0556 21.1771 29.8467 20.3919 30.8185 20.3919C31.7903 20.3919 32.5814 21.1771 32.5814 22.1419ZM5.39183 55.0074C4.87503 55.5196 4.03843 55.5185 3.52286 55.0087C3.2743 54.7601 3.13785 54.4324 3.13785 54.0835C3.13785 53.7358 3.2743 53.4079 3.52286 53.1618L5.6274 51.0652L7.48941 52.9191L5.39183 55.0074ZM12.4222 63.1743C11.9054 63.6865 11.0677 63.6877 10.552 63.1755C10.3034 62.927 10.1669 62.5993 10.1669 62.2503C10.1669 61.9027 10.3034 61.5748 10.552 61.3287L12.6579 59.231L13.5388 60.1073L14.5211 61.0849L12.4222 63.1743ZM20.0383 55.5862C20.0371 55.5873 20.036 55.5873 20.0348 55.5885L16.1742 59.4385L15.2933 58.5623L14.311 57.5846L18.168 53.7451C18.168 53.7451 18.168 53.7451 18.168 53.744C18.1692 53.7428 18.1703 53.7428 18.1715 53.7417C18.259 53.6542 18.3139 53.5492 18.3676 53.4454C18.3828 53.415 18.4119 53.3893 18.4248 53.3579C18.461 53.2681 18.4667 53.1713 18.4808 53.0767C18.4878 53.0229 18.5112 52.9729 18.5112 52.9179C18.5112 52.8397 18.4831 52.764 18.4669 52.6869C18.4529 52.6169 18.4529 52.5456 18.426 52.4781C18.3817 52.3684 18.3058 52.2716 18.2265 52.177C18.2044 52.1513 18.1962 52.1186 18.1717 52.0942C18.1717 52.0942 18.1717 52.0942 18.1705 52.0942C18.1692 52.0931 18.1692 52.0906 18.1681 52.0895L14.6529 48.5895C14.6156 48.5521 14.5677 48.537 14.5257 48.5055C14.464 48.4577 14.4045 48.4134 14.3356 48.3795C14.2691 48.3468 14.2014 48.327 14.1314 48.3082C14.0568 48.2872 13.9845 48.2709 13.9063 48.265C13.835 48.2604 13.7686 48.2674 13.6975 48.2756C13.6193 48.2849 13.5459 48.2954 13.47 48.3199C13.3964 48.3432 13.3312 48.3793 13.2635 48.4179C13.2203 48.4424 13.1714 48.4506 13.1305 48.4809L9.25133 51.3767L7.28077 49.4143L12.5285 44.1946L22.0674 53.576L20.0383 55.5862ZM34.9544 40.2372C34.9207 40.2325 34.8891 40.2454 34.8553 40.2431C34.7701 40.2384 34.6885 40.2443 34.6034 40.2582C34.5369 40.2699 34.4739 40.2827 34.4108 40.3049C34.3362 40.3306 34.2685 40.3656 34.1996 40.4075C34.1343 40.4472 34.0748 40.4892 34.0176 40.5417C33.9896 40.5661 33.9558 40.5779 33.9301 40.6058L23.6527 51.862L14.185 42.5506L20.3825 36.3859C20.8387 35.9309 20.841 35.1923 20.386 34.735C20.1562 34.5052 19.854 34.392 19.5519 34.3932V34.3921L14.6984 34.4212L14.7591 30.9049L21.5492 30.9633C24.3166 33.7937 28.176 35.5589 32.446 35.5589C33.4027 35.5589 34.3361 35.4598 35.2448 35.2905C35.3323 35.3605 35.4186 35.4317 35.5284 35.476L40.7995 37.5761L41.1331 39.235L41.5228 41.1717L34.9544 40.2372ZM43.7944 40.6269L43.1096 37.2189L46.2736 34.8564L47.102 35.9554L48.3445 37.605L43.7944 40.6269ZM52.0055 34.4341L50.1726 36.1514L48.1356 33.4471L49.9544 32.0529C50.2938 31.7917 50.7221 31.6854 51.1421 31.7403C51.5644 31.7997 51.9378 32.0203 52.1921 32.3621C52.6658 33.0003 52.5853 33.8905 52.0055 34.4341Z" fill="#212121"/>
      <path d="M29.7545 40.5651L25.0668 35.8984C24.613 35.4446 23.8755 35.4446 23.4205 35.8984L18.734 40.5651C18.5147 40.7856 18.391 41.0819 18.391 41.3922C18.391 41.7026 18.5135 42.0001 18.734 42.2194L23.4205 46.8861C23.648 47.1124 23.9468 47.2256 24.2443 47.2256C24.5418 47.2256 24.8404 47.1124 25.0668 46.8861L29.7545 42.2194C29.9738 42.0001 30.0987 41.7026 30.0987 41.3922C30.0987 41.0819 29.9749 40.7844 29.7545 40.5651ZM24.2443 44.4128L21.2109 41.3922L24.2443 38.3717L27.2788 41.3922L24.2443 44.4128Z" fill="#212121"/>
      <path d="M37.5468 11.0923L36.9833 13.358C37.1385 13.3966 40.7844 14.3462 40.7844 18.0586H43.1178C43.1177 13.6461 39.4742 11.5718 37.5468 11.0923Z" fill="#212121"/>
      <path d="M43.1178 20.3919H40.7844V22.7253H43.1178V20.3919Z" fill="#212121"/>
    </symbol>
<!-- CLIENTES -->
    <symbol id="cliente1" viewBox="0 0 29 32">
<path fill="#afb1b8" style="fill: var(--color1, #afb1b8)" d="M4.174 0.060l4.875 4.615-9.049-0.005v22.391h23.652v-8.561l4.87 4.61v-23.050h-24.348zM23.438 17.958l-13.822-13.085h13.822v13.085zM19.146 23.786h-15.404v-15.059h1.089v14.040h14.315v1.020zM7.38 30.043l-0.569 1.172-0.569-1.172h-0.477l0.83 1.563v0.91h0.431v-0.91l0.829-1.563h-0.476zM8.095 32.515l0.2-0.576h0.958l0.202 0.576h0.448l-0.936-2.473h-0.386l-0.934 2.473h0.447zM8.774 30.567l0.358 1.026h-0.717l0.358-1.026zM11.040 31.534c-0.062 0.095-0.093 0.2-0.093 0.314 0 0.208 0.073 0.378 0.219 0.508 0.147 0.129 0.343 0.194 0.588 0.194s0.455-0.066 0.632-0.199l0.139 0.165h0.479l-0.363-0.43c0.143-0.195 0.214-0.444 0.214-0.749h-0.358c0 0.166-0.034 0.318-0.104 0.454l-0.477-0.564 0.168-0.122c0.119-0.086 0.204-0.172 0.257-0.258 0.052-0.087 0.078-0.182 0.078-0.285 0-0.156-0.058-0.287-0.173-0.392-0.114-0.106-0.262-0.16-0.442-0.16-0.199 0-0.358 0.057-0.476 0.17-0.118 0.112-0.177 0.265-0.177 0.459 0 0.079 0.019 0.161 0.056 0.246 0.038 0.085 0.106 0.188 0.202 0.309-0.183 0.131-0.306 0.245-0.369 0.341zM12.156 32.081c-0.121 0.093-0.251 0.139-0.391 0.139-0.123 0-0.222-0.036-0.296-0.107s-0.11-0.164-0.11-0.279c0-0.132 0.068-0.25 0.204-0.353l0.053-0.037 0.54 0.637zM11.713 30.985c-0.117-0.144-0.175-0.263-0.175-0.358 0-0.083 0.024-0.151 0.071-0.206s0.111-0.082 0.192-0.082c0.075 0 0.136 0.023 0.185 0.070 0.049 0.045 0.073 0.1 0.073 0.165 0 0.097-0.035 0.177-0.105 0.239l-0.053 0.042-0.189 0.129zM15.738 32.328c0.17-0.148 0.267-0.354 0.292-0.618h-0.428c-0.023 0.177-0.076 0.303-0.161 0.379s-0.212 0.114-0.38 0.114c-0.185 0-0.325-0.070-0.421-0.211-0.095-0.14-0.143-0.344-0.143-0.611v-0.219c0.002-0.264 0.053-0.464 0.153-0.599 0.101-0.137 0.245-0.206 0.431-0.206 0.161 0 0.283 0.040 0.365 0.119 0.084 0.078 0.136 0.206 0.156 0.384h0.428c-0.027-0.271-0.124-0.48-0.29-0.628s-0.386-0.222-0.659-0.222c-0.203 0-0.382 0.048-0.537 0.144-0.154 0.096-0.272 0.233-0.355 0.411s-0.124 0.383-0.124 0.616v0.231c0.003 0.228 0.046 0.427 0.127 0.599s0.197 0.305 0.346 0.399c0.151 0.093 0.324 0.139 0.521 0.139 0.282 0 0.508-0.074 0.678-0.221zM18.263 31.982c0.084-0.183 0.126-0.396 0.126-0.639v-0.138c-0.001-0.241-0.044-0.452-0.129-0.634-0.085-0.182-0.206-0.322-0.362-0.418-0.155-0.097-0.333-0.146-0.535-0.146s-0.38 0.049-0.537 0.148c-0.155 0.097-0.276 0.238-0.362 0.423-0.085 0.185-0.127 0.397-0.127 0.639v0.139c0.001 0.237 0.044 0.446 0.129 0.627 0.086 0.181 0.207 0.321 0.363 0.42 0.157 0.097 0.336 0.146 0.537 0.146 0.203 0 0.382-0.049 0.537-0.146 0.156-0.099 0.276-0.239 0.36-0.421zM17.803 30.584c0.104 0.146 0.156 0.356 0.156 0.63v0.129c0 0.279-0.052 0.49-0.155 0.635-0.102 0.145-0.248 0.217-0.438 0.217-0.188 0-0.335-0.074-0.442-0.222-0.105-0.148-0.158-0.358-0.158-0.63v-0.143c0.002-0.266 0.055-0.472 0.16-0.616 0.105-0.146 0.251-0.219 0.437-0.219 0.19 0 0.337 0.073 0.44 0.219z"></path>
</symbol>
<!-- INSTAGRAM -->
<symbol id="icon-instagram" viewBox="0 0 32 32">
<path d="M16 2.881c4.275 0 4.781 0.019 6.462 0.094 1.563 0.069 2.406 0.331 2.969 0.55 0.744 0.288 1.281 0.638 1.837 1.194 0.563 0.563 0.906 1.094 1.2 1.838 0.219 0.563 0.481 1.412 0.55 2.969 0.075 1.688 0.094 2.194 0.094 6.463s-0.019 4.781-0.094 6.463c-0.069 1.563-0.331 2.406-0.55 2.969-0.288 0.744-0.637 1.281-1.194 1.837-0.563 0.563-1.094 0.906-1.837 1.2-0.563 0.219-1.413 0.481-2.969 0.55-1.688 0.075-2.194 0.094-6.463 0.094s-4.781-0.019-6.463-0.094c-1.563-0.069-2.406-0.331-2.969-0.55-0.744-0.288-1.281-0.637-1.838-1.194-0.563-0.563-0.906-1.094-1.2-1.837-0.219-0.563-0.481-1.413-0.55-2.969-0.075-1.688-0.094-2.194-0.094-6.463s0.019-4.781 0.094-6.463c0.069-1.563 0.331-2.406 0.55-2.969 0.288-0.744 0.638-1.281 1.194-1.838 0.563-0.563 1.094-0.906 1.838-1.2 0.563-0.219 1.412-0.481 2.969-0.55 1.681-0.075 2.188-0.094 6.463-0.094zM16 0c-4.344 0-4.887 0.019-6.594 0.094-1.7 0.075-2.869 0.35-3.881 0.744-1.056 0.412-1.95 0.956-2.837 1.85-0.894 0.888-1.438 1.781-1.85 2.831-0.394 1.019-0.669 2.181-0.744 3.881-0.075 1.713-0.094 2.256-0.094 6.6s0.019 4.887 0.094 6.594c0.075 1.7 0.35 2.869 0.744 3.881 0.413 1.056 0.956 1.95 1.85 2.837 0.887 0.887 1.781 1.438 2.831 1.844 1.019 0.394 2.181 0.669 3.881 0.744 1.706 0.075 2.25 0.094 6.594 0.094s4.888-0.019 6.594-0.094c1.7-0.075 2.869-0.35 3.881-0.744 1.050-0.406 1.944-0.956 2.831-1.844s1.438-1.781 1.844-2.831c0.394-1.019 0.669-2.181 0.744-3.881 0.075-1.706 0.094-2.25 0.094-6.594s-0.019-4.887-0.094-6.594c-0.075-1.7-0.35-2.869-0.744-3.881-0.394-1.063-0.938-1.956-1.831-2.844-0.887-0.887-1.781-1.438-2.831-1.844-1.019-0.394-2.181-0.669-3.881-0.744-1.712-0.081-2.256-0.1-6.6-0.1v0z"></path>
<path d="M16 7.781c-4.537 0-8.219 3.681-8.219 8.219s3.681 8.219 8.219 8.219 8.219-3.681 8.219-8.219c0-4.537-3.681-8.219-8.219-8.219zM16 21.331c-2.944 0-5.331-2.387-5.331-5.331s2.387-5.331 5.331-5.331c2.944 0 5.331 2.387 5.331 5.331s-2.387 5.331-5.331 5.331z"></path>
<path d="M26.462 7.456c0 1.060-0.859 1.919-1.919 1.919s-1.919-0.859-1.919-1.919c0-1.060 0.859-1.919 1.919-1.919s1.919 0.859 1.919 1.919z"></path>
</symbol>
<!-- TWITTER -->
<symbol id="icon-twitter-1" viewBox="0 0 32 32">
<path d="M32 6.078c-1.19 0.522-2.458 0.868-3.78 1.036 1.36-0.812 2.398-2.088 2.886-3.626-1.268 0.756-2.668 1.29-4.16 1.588-1.204-1.282-2.92-2.076-4.792-2.076-3.632 0-6.556 2.948-6.556 6.562 0 0.52 0.044 1.020 0.152 1.496-5.454-0.266-10.28-2.88-13.522-6.862-0.566 0.982-0.898 2.106-0.898 3.316 0 2.272 1.17 4.286 2.914 5.452-1.054-0.020-2.088-0.326-2.964-0.808 0 0.020 0 0.046 0 0.072 0 3.188 2.274 5.836 5.256 6.446-0.534 0.146-1.116 0.216-1.72 0.216-0.42 0-0.844-0.024-1.242-0.112 0.85 2.598 3.262 4.508 6.13 4.57-2.232 1.746-5.066 2.798-8.134 2.798-0.538 0-1.054-0.024-1.57-0.090 2.906 1.874 6.35 2.944 10.064 2.944 12.072 0 18.672-10 18.672-18.668 0-0.29-0.010-0.57-0.024-0.848 1.302-0.924 2.396-2.078 3.288-3.406z"></path>
</symbol>
<!-- FACEBOOK -->
<symbol id="icon-facebook-1" viewBox="0 0 32 32">
<path d="M21.329 5.313h2.921v-5.088c-0.504-0.069-2.237-0.225-4.256-0.225-4.212 0-7.097 2.649-7.097 7.519v4.481h-4.648v5.688h4.648v14.312h5.699v-14.311h4.46l0.708-5.688h-5.169v-3.919c0.001-1.644 0.444-2.769 2.735-2.769v0z"></path>
</symbol>
<!-- LINKENDIN -->
<symbol id="icon-linkedin-1" viewBox="0 0 32 32">
<path d="M31.992 32v-0.001h0.008v-11.736c0-5.741-1.236-10.164-7.948-10.164-3.227 0-5.392 1.771-6.276 3.449h-0.093v-2.913h-6.364v21.364h6.627v-10.579c0-2.785 0.528-5.479 3.977-5.479 3.399 0 3.449 3.179 3.449 5.657v10.401h6.62z"></path>
<path d="M0.528 10.636h6.635v21.364h-6.635v-21.364z"></path>
<path d="M3.843 0c-2.121 0-3.843 1.721-3.843 3.843s1.721 3.879 3.843 3.879c2.121 0 3.843-1.757 3.843-3.879-0.001-2.121-1.723-3.843-3.843-3.843v0z"></path>
</symbol>
<!-- ELIPSE AZUL-->
<symbol id="icon-elipseazul" viewBox="0 0 32 32">
<path fill="#2196f3" style="fill: var(--color2, #2196f3)" d="M32 16c0 4.418-1.791 8.418-4.686 11.314s-6.895 4.686-11.314 4.686-8.418-1.791-11.314-4.686c-2.895-2.895-4.686-6.895-4.686-11.314s1.791-8.418 4.686-11.314c2.895-2.895 6.895-4.686 11.314-4.686s8.418 1.791 11.314 4.686c2.895 2.895 4.686 6.895 4.686 11.314z"></path>
</symbol>
<!-- CLIENTES 1 -->
<symbol id="icon-Cliente-1" viewBox="0 0 67 32">
<path d="M27.654 8.331l2.768 2.621-5.139-0.003v12.716h13.432v-4.862l2.765 2.618v-13.090h-13.827zM38.595 18.495l-7.85-7.431h7.85v7.431zM36.157 21.804h-8.748v-8.552h0.618v7.973h8.13v0.579zM29.475 25.357l-0.323 0.666-0.323-0.666h-0.271l0.472 0.887v0.517h0.245v-0.517l0.471-0.887h-0.27zM29.881 26.762l0.114-0.327h0.544l0.115 0.327h0.255l-0.531-1.404h-0.219l-0.53 1.404h0.254zM30.267 25.655l0.203 0.583h-0.407l0.204-0.583zM31.554 26.204c-0.035 0.054-0.053 0.113-0.053 0.178 0 0.118 0.041 0.214 0.124 0.288s0.195 0.11 0.334 0.11 0.259-0.038 0.359-0.113l0.079 0.094h0.272l-0.206-0.244c0.081-0.111 0.122-0.252 0.122-0.425h-0.203c0 0.095-0.020 0.18-0.059 0.258l-0.271-0.32 0.096-0.069c0.068-0.049 0.116-0.098 0.146-0.147s0.044-0.104 0.044-0.162c0-0.089-0.033-0.163-0.098-0.223s-0.149-0.091-0.251-0.091c-0.113 0-0.203 0.032-0.27 0.096s-0.1 0.15-0.1 0.26c0 0.045 0.011 0.092 0.032 0.14s0.060 0.107 0.115 0.176c-0.104 0.075-0.174 0.139-0.209 0.194zM32.187 26.515c-0.069 0.053-0.143 0.079-0.222 0.079-0.070 0-0.126-0.020-0.168-0.061s-0.063-0.093-0.063-0.158c0-0.075 0.039-0.142 0.116-0.201l0.030-0.021 0.307 0.362zM31.936 25.893c-0.066-0.082-0.099-0.149-0.099-0.204 0-0.047 0.014-0.086 0.041-0.117s0.063-0.046 0.109-0.046c0.042 0 0.077 0.013 0.105 0.040s0.041 0.057 0.041 0.094c0 0.055-0.020 0.101-0.060 0.136l-0.030 0.024-0.107 0.073zM34.221 26.656c0.096-0.084 0.152-0.201 0.166-0.351h-0.243c-0.013 0.1-0.043 0.172-0.092 0.215s-0.12 0.065-0.216 0.065c-0.105 0-0.185-0.040-0.239-0.12s-0.081-0.195-0.081-0.347v-0.124c0.001-0.15 0.030-0.263 0.087-0.34s0.139-0.117 0.245-0.117c0.091 0 0.16 0.022 0.207 0.068s0.077 0.117 0.089 0.218h0.243c-0.015-0.154-0.070-0.273-0.165-0.357s-0.219-0.126-0.374-0.126c-0.115 0-0.217 0.027-0.305 0.082s-0.155 0.132-0.202 0.233-0.070 0.218-0.070 0.35v0.131c0.002 0.129 0.026 0.243 0.072 0.34s0.112 0.173 0.197 0.227c0.086 0.053 0.184 0.079 0.296 0.079 0.16 0 0.288-0.042 0.385-0.125zM35.656 26.459c0.048-0.104 0.071-0.225 0.071-0.363v-0.078c-0.001-0.137-0.025-0.257-0.073-0.36s-0.117-0.183-0.205-0.237c-0.088-0.055-0.189-0.083-0.304-0.083s-0.216 0.028-0.305 0.084c-0.088 0.055-0.157 0.135-0.205 0.24s-0.072 0.226-0.072 0.363v0.079c0.001 0.134 0.025 0.253 0.073 0.356s0.118 0.182 0.206 0.238c0.089 0.055 0.191 0.083 0.305 0.083 0.115 0 0.217-0.028 0.305-0.083s0.157-0.136 0.204-0.239zM35.394 25.665c0.059 0.083 0.089 0.202 0.089 0.358v0.073c0 0.158-0.029 0.278-0.088 0.361s-0.141 0.123-0.249 0.123c-0.107 0-0.19-0.042-0.251-0.126s-0.090-0.204-0.090-0.358v-0.081c0.001-0.151 0.032-0.268 0.091-0.35s0.142-0.124 0.248-0.124c0.108 0 0.191 0.041 0.25 0.124z"></path>
</symbol>
<!-- CLIENTE 2  -->
<symbol id="icon-Cliente-2" viewBox="0 0 67 32">
<path  d="M32.44 7.91h-0.054c-0.083-0.005-0.166-0.007-0.249-0.009v0h-0.18c-0.157 0-0.317 0.004-0.476 0.012-0.012-0.001-0.024-0.001-0.036 0-1.44 0.082-2.85 0.441-4.154 1.060l-0.171 0.082v8.747l0.4-0.136c0.351-0.121 0.725-0.229 1.111-0.33 1.046-0.268 2.119-0.411 3.198-0.425v1.149c-0.143 0.001-0.282 0.005-0.421 0.012h-0.033c-0.83 0.046-1.654 0.172-2.461 0.378-1.021 0.256-2.006 0.639-2.931 1.142v-11.218c0.961-0.561 1.997-0.982 3.075-1.251 0.947-0.245 1.921-0.37 2.898-0.374h0.169c0.202 0.005 0.399 0.014 0.584 0.028 0.487 0.034 0.97 0.111 1.444 0.23v1.131c-0.46-0.107-0.928-0.178-1.399-0.211-0.010-0.001-0.019-0.002-0.029-0.002-0.097-0.008-0.195-0.017-0.286-0.017zM34.431 9.066c0.251 0.019 0.511 0.028 0.774 0.028 1.028-0.004 2.051-0.135 3.047-0.391 1.020-0.257 2.005-0.641 2.93-1.143v11.019c-0.962 0.56-1.997 0.981-3.076 1.251-0.947 0.244-1.921 0.369-2.898 0.373-0.741 0.006-1.479-0.081-2.199-0.259v-11.090c0.17 0.039 0.345 0.075 0.523 0.105 0.292 0.049 0.6 0.085 0.899 0.107zM40.038 9.151l-0.4 0.135c-0.368 0.124-0.739 0.234-1.111 0.333-1.085 0.279-2.201 0.422-3.321 0.426-0.261 0-0.501-0.007-0.733-0.022l-0.319-0.021v8.998l0.274 0.024c0.254 0.022 0.516 0.033 0.78 0.033 0.882-0.004 1.761-0.117 2.615-0.339 0.704-0.176 1.388-0.422 2.044-0.734l0.171-0.082v-8.75z"></path>
<path  d="M26.76 23.427c-0.057-0.060-0.127-0.106-0.203-0.137s-0.159-0.045-0.241-0.042c-0.088-0.001-0.175 0.015-0.257 0.048-0.075 0.030-0.143 0.075-0.2 0.132s-0.1 0.126-0.129 0.201c-0.031 0.079-0.047 0.163-0.046 0.248v1.499c-0.004 0.106 0.017 0.211 0.059 0.307 0.035 0.077 0.086 0.145 0.15 0.201 0.060 0.050 0.13 0.087 0.206 0.107 0.073 0.020 0.148 0.031 0.224 0.031 0.083 0.001 0.166-0.017 0.242-0.052 0.075-0.033 0.143-0.080 0.2-0.139 0.056-0.058 0.1-0.126 0.131-0.201 0.032-0.076 0.048-0.157 0.048-0.239v-0.168h-0.392v0.134c0.001 0.046-0.007 0.091-0.023 0.134-0.013 0.032-0.032 0.061-0.057 0.084-0.024 0.020-0.052 0.034-0.082 0.043-0.026 0.009-0.054 0.014-0.082 0.014-0.035 0.004-0.070-0.001-0.103-0.015s-0.060-0.037-0.081-0.065c-0.037-0.060-0.055-0.13-0.052-0.201v-1.397c-0.002-0.078 0.014-0.154 0.048-0.224 0.020-0.032 0.049-0.057 0.083-0.073s0.072-0.022 0.109-0.018c0.034-0.001 0.067 0.006 0.098 0.021s0.057 0.037 0.077 0.064c0.044 0.058 0.067 0.128 0.065 0.201v0.13h0.388v-0.153c0.001-0.090-0.016-0.179-0.048-0.262-0.029-0.078-0.073-0.15-0.131-0.211z"></path>
<path  d="M29.088 23.41c-0.125-0.105-0.283-0.164-0.446-0.165-0.080 0-0.159 0.015-0.234 0.042-0.076 0.027-0.146 0.069-0.207 0.123-0.065 0.058-0.117 0.13-0.152 0.21-0.039 0.092-0.059 0.191-0.057 0.29v1.438c-0.003 0.101 0.017 0.202 0.057 0.294 0.035 0.077 0.087 0.146 0.152 0.201 0.060 0.056 0.13 0.099 0.207 0.127 0.075 0.028 0.154 0.042 0.234 0.042s0.159-0.014 0.234-0.042c0.078-0.028 0.15-0.071 0.212-0.127s0.113-0.124 0.148-0.201c0.040-0.093 0.060-0.193 0.057-0.294v-1.438c0.002-0.1-0.017-0.199-0.057-0.29-0.035-0.079-0.085-0.151-0.148-0.21zM28.905 25.348c0.003 0.038-0.002 0.077-0.015 0.113s-0.035 0.069-0.062 0.095c-0.052 0.043-0.117 0.067-0.184 0.067s-0.133-0.024-0.184-0.067c-0.028-0.027-0.049-0.059-0.062-0.095s-0.019-0.075-0.015-0.113v-1.438c-0.003-0.038 0.002-0.077 0.015-0.113s0.035-0.068 0.062-0.095c0.052-0.043 0.117-0.067 0.184-0.067s0.133 0.024 0.184 0.067c0.028 0.027 0.049 0.059 0.062 0.095s0.019 0.075 0.015 0.113v1.438z"></path>
<path  d="M32.145 25.99v-2.721h-0.377l-0.495 1.441h-0.007l-0.499-1.441h-0.373v2.721h0.389v-1.656h0.007l0.381 1.17h0.194l0.384-1.17h0.007v1.656h0.389z"></path>
<path  d="M34.354 23.459c-0.060-0.067-0.135-0.118-0.22-0.149-0.091-0.030-0.186-0.044-0.282-0.042h-0.578v2.721h0.388v-1.063h0.2c0.121 0.006 0.241-0.020 0.35-0.074 0.088-0.049 0.162-0.121 0.213-0.208 0.045-0.072 0.075-0.153 0.089-0.237 0.015-0.102 0.022-0.206 0.021-0.309 0.004-0.131-0.009-0.261-0.038-0.389-0.026-0.094-0.075-0.18-0.143-0.25zM34.154 24.289c-0.002 0.049-0.014 0.098-0.036 0.142-0.022 0.042-0.057 0.075-0.1 0.095-0.057 0.026-0.12 0.037-0.183 0.034h-0.177v-0.925h0.2c0.060-0.003 0.12 0.009 0.175 0.034 0.040 0.023 0.072 0.058 0.091 0.1 0.021 0.048 0.033 0.099 0.034 0.152 0 0.057 0 0.118 0 0.181s0.004 0.129 0 0.187h-0.004z"></path>
<path  d="M36.191 23.268h-0.318l-0.6 2.721h0.388l0.114-0.585h0.529l0.114 0.585h0.388l-0.615-2.721zM35.833 25.034l0.191-0.986h0.007l0.19 0.986h-0.388z"></path>
<path  d="M38.696 24.908h-0.007l-0.586-1.639h-0.373v2.721h0.388v-1.637h0.008l0.593 1.637h0.365v-2.721h-0.388v1.639z"></path>
<path  d="M41.066 23.268l-0.312 1.082h-0.008l-0.312-1.082h-0.411l0.533 1.571v1.15h0.388v-1.15l0.533-1.571h-0.41z"></path>
</symbol>
<!-- CLIENTE 3 -->
<symbol id="icon-Cliente-3" viewBox="0 0 67 32">
<path  d="M27.025 24.963c0.006 0 0.012 0.001 0.018 0.004s0.011 0.005 0.015 0.009l0.086 0.082c-0.067 0.067-0.15 0.12-0.242 0.156-0.109 0.040-0.226 0.059-0.344 0.056-0.111 0.002-0.221-0.016-0.323-0.052-0.092-0.034-0.175-0.084-0.243-0.148-0.069-0.066-0.123-0.144-0.157-0.228-0.038-0.094-0.056-0.193-0.055-0.293-0.002-0.1 0.019-0.2 0.059-0.294 0.038-0.085 0.094-0.163 0.167-0.228 0.074-0.064 0.162-0.115 0.259-0.149 0.106-0.036 0.219-0.054 0.333-0.052 0.106-0.002 0.211 0.014 0.309 0.048 0.085 0.032 0.164 0.077 0.232 0.132l-0.072 0.088c-0.005 0.006-0.011 0.012-0.018 0.016-0.009 0.005-0.019 0.007-0.029 0.007s-0.022-0.004-0.031-0.009l-0.039-0.023-0.054-0.030c-0.023-0.011-0.047-0.021-0.072-0.029-0.032-0.010-0.065-0.018-0.098-0.023-0.042-0.007-0.085-0.010-0.128-0.009-0.082-0.001-0.163 0.012-0.239 0.039-0.071 0.025-0.135 0.063-0.187 0.11-0.054 0.051-0.095 0.111-0.122 0.176-0.030 0.075-0.045 0.153-0.044 0.232-0.001 0.080 0.014 0.16 0.044 0.236 0.026 0.065 0.067 0.124 0.12 0.175 0.049 0.048 0.11 0.085 0.179 0.109 0.070 0.025 0.146 0.038 0.222 0.037 0.044 0.001 0.088-0.002 0.131-0.008 0.071-0.008 0.139-0.029 0.199-0.063 0.030-0.017 0.059-0.037 0.085-0.058 0.011-0.009 0.026-0.015 0.041-0.015z"></path>
<path  d="M29.513 24.549c0.001 0.099-0.018 0.198-0.058 0.291-0.035 0.084-0.090 0.161-0.162 0.226s-0.159 0.115-0.255 0.148c-0.211 0.070-0.444 0.070-0.655 0-0.095-0.034-0.182-0.084-0.253-0.149-0.072-0.066-0.128-0.143-0.164-0.228-0.078-0.189-0.078-0.395 0-0.583 0.037-0.085 0.092-0.163 0.164-0.229 0.072-0.062 0.158-0.111 0.253-0.143 0.211-0.071 0.444-0.071 0.655 0 0.096 0.034 0.182 0.084 0.254 0.149 0.071 0.065 0.126 0.142 0.163 0.226 0.040 0.094 0.060 0.193 0.058 0.293zM29.287 24.549c0.002-0.079-0.012-0.159-0.041-0.234-0.024-0.065-0.063-0.124-0.115-0.175-0.051-0.048-0.113-0.086-0.182-0.11-0.153-0.051-0.323-0.051-0.476 0-0.069 0.025-0.132 0.062-0.182 0.11-0.053 0.051-0.092 0.11-0.116 0.175-0.055 0.152-0.055 0.316 0 0.468 0.024 0.065 0.064 0.124 0.116 0.175 0.051 0.048 0.113 0.085 0.182 0.11 0.154 0.050 0.323 0.050 0.476 0 0.069-0.024 0.131-0.062 0.182-0.11 0.052-0.051 0.091-0.11 0.115-0.175 0.029-0.075 0.043-0.154 0.041-0.234z"></path>
<path  d="M31.21 24.795l0.023 0.052c0.009-0.019 0.016-0.036 0.025-0.052s0.018-0.035 0.028-0.051l0.55-0.869c0.011-0.015 0.020-0.024 0.031-0.027 0.015-0.004 0.030-0.005 0.045-0.005h0.163v1.414h-0.193v-1.040c0-0.013 0-0.028 0-0.044-0.001-0.016-0.001-0.032 0-0.049l-0.554 0.882c-0.007 0.013-0.018 0.024-0.032 0.032s-0.031 0.012-0.047 0.012h-0.031c-0.017 0-0.033-0.004-0.047-0.012s-0.025-0.019-0.032-0.032l-0.57-0.887c0 0.017 0 0.034 0 0.051s0 0.032 0 0.045v1.040h-0.186v-1.411h0.163c0.015-0.001 0.031 0.001 0.045 0.005 0.013 0.006 0.024 0.015 0.030 0.027l0.562 0.87c0.011 0.016 0.020 0.033 0.028 0.051z"></path>
<path  d="M33.282 24.724v0.53h-0.215v-1.412h0.48c0.091-0.002 0.181 0.009 0.268 0.031 0.070 0.017 0.134 0.047 0.19 0.088 0.048 0.038 0.085 0.086 0.108 0.139 0.025 0.058 0.038 0.119 0.037 0.181 0.001 0.062-0.013 0.123-0.040 0.181-0.026 0.054-0.066 0.103-0.116 0.141-0.055 0.043-0.12 0.074-0.191 0.094-0.084 0.023-0.172 0.034-0.26 0.033l-0.261-0.004zM33.282 24.573h0.261c0.057 0.001 0.113-0.007 0.167-0.022 0.045-0.013 0.086-0.034 0.121-0.061 0.032-0.026 0.057-0.058 0.073-0.094 0.018-0.038 0.026-0.078 0.026-0.119 0.003-0.039-0.005-0.078-0.022-0.115s-0.042-0.069-0.075-0.096c-0.082-0.056-0.186-0.083-0.29-0.076h-0.261v0.582z"></path>
<path  d="M36.177 25.256h-0.17c-0.017 0.001-0.034-0.004-0.047-0.013-0.012-0.009-0.022-0.020-0.028-0.033l-0.147-0.342h-0.736l-0.152 0.342c-0.006 0.013-0.015 0.023-0.027 0.032-0.014 0.010-0.031 0.015-0.048 0.014h-0.17l0.646-1.414h0.224l0.655 1.414zM35.111 24.731h0.608l-0.256-0.576c-0.020-0.043-0.036-0.088-0.048-0.133l-0.025 0.074c-0.008 0.022-0.016 0.043-0.024 0.060l-0.254 0.575z"></path>
<path  d="M37.108 23.849c0.013 0.006 0.024 0.015 0.032 0.025l0.942 1.066c0-0.017 0-0.034 0-0.050s0-0.032 0-0.047v-1.001h0.193v1.414h-0.108c-0.015 0-0.030-0.003-0.044-0.008s-0.025-0.016-0.034-0.026l-0.941-1.065c0.001 0.016 0.001 0.032 0 0.049 0 0.016 0 0.030 0 0.043v1.008h-0.193v-1.414h0.114c0.013-0 0.027 0.002 0.039 0.007z"></path>
<path  d="M39.863 24.694v0.562h-0.215v-0.562l-0.596-0.852h0.193c0.017-0.001 0.033 0.003 0.046 0.012 0.012 0.009 0.022 0.020 0.029 0.032l0.373 0.549c0.015 0.023 0.028 0.045 0.039 0.066s0.020 0.040 0.027 0.060l0.028-0.061c0.010-0.022 0.023-0.044 0.036-0.065l0.367-0.553c0.008-0.011 0.017-0.021 0.028-0.030 0.013-0.010 0.029-0.015 0.046-0.014h0.195l-0.597 0.855z"></path>
<path  d="M31.104 21.469c0.094 0.010 0.189 0.019 0.284 0.026 1.453-0.565 2.683-1.489 3.535-2.658s1.289-2.53 1.255-3.913l-1.602-1.392c0.326 1.473 0.173 2.995-0.44 4.396s-1.663 2.627-3.033 3.54z"></path>
<path  d="M30.532 21.404l0.043 0.007c1.463-0.909 2.579-2.179 3.203-3.645s0.727-3.061 0.296-4.579l-2.281-1.982c0.923 1.629 1.294 3.453 1.071 5.258s-1.032 3.519-2.331 4.941z"></path>
<path  d="M38.269 16.558c-0.388 1.52-1.329 2.89-2.684 3.908-0.396 0.299-0.823 0.565-1.275 0.795 1.104-0.282 2.118-0.78 2.965-1.456s1.504-1.513 1.92-2.444l-0.925-0.803z"></path>
<path  d="M37.906 16.335l-1.317-1.145c-0.025 1.305-0.452 2.58-1.237 3.693s-1.898 2.023-3.224 2.636h0.006c0.296-0 0.591-0.015 0.884-0.046 1.239-0.44 2.334-1.139 3.187-2.036s1.437-1.963 1.7-3.103z"></path>
<path  d="M30.723 10.37l-1.572-1.367c-1.405 0.472-2.613 1.301-3.467 2.379s-1.312 2.355-1.317 3.664v0c0.005 1.446 0.565 2.849 1.592 3.987s2.46 1.947 4.075 2.297c1.441-1.526 2.285-3.411 2.409-5.382s-0.479-3.925-1.721-5.578z"></path>
<path  d="M41.537 16.124c-0.006-1.716-0.792-3.359-2.189-4.573s-3.288-1.897-5.263-1.902c-0.912-0.001-1.817 0.145-2.668 0.431l9.622 8.36c0.329-0.739 0.499-1.525 0.498-2.317z"></path>
</symbol>
<!-- CLIENTE 4 -->
<symbol id="icon-Cliente-4" viewBox="0 0 67 32">
<path  d="M22.181 13.902h-0.001c-0.947 0-1.715 0.682-1.715 1.524v0.001c0 0.842 0.768 1.524 1.715 1.524h0.001c0.947 0 1.715-0.683 1.715-1.524v-0.001c0-0.842-0.768-1.524-1.715-1.524z"></path>
<path  d="M34.842 13.415c-0.003-1.169-0.526-2.29-1.457-3.117s-2.191-1.293-3.507-1.295v0c-1.316 0.002-2.578 0.468-3.509 1.295s-1.455 1.948-1.458 3.118v6.449c0 0 9.929-0.983 9.93-6.448v-0.001z"></path>
<path  d="M16.988 21.98c0.002 0.814 0.367 1.593 1.014 2.169s1.525 0.9 2.44 0.902c0.915-0.002 1.792-0.327 2.44-0.902s1.012-1.355 1.015-2.168v-4.487c0 0-6.909 0.684-6.909 4.486zM20.442 22.784c-0.179 0-0.354-0.047-0.503-0.136s-0.265-0.214-0.333-0.361c-0.068-0.147-0.086-0.309-0.051-0.465s0.121-0.299 0.248-0.412c0.127-0.112 0.288-0.189 0.463-0.22s0.357-0.015 0.523 0.046c0.165 0.061 0.307 0.164 0.406 0.296s0.152 0.288 0.152 0.447c0 0.106-0.023 0.211-0.068 0.309s-0.112 0.187-0.196 0.262c-0.084 0.075-0.184 0.134-0.294 0.175s-0.228 0.061-0.347 0.061v-0.003z"></path>
<path  d="M26.758 21.345v1.685h-0.347v-1.685h0.347zM27.429 22.064v0.271h-0.766v-0.271h0.766zM27.51 21.345v0.272h-0.847v-0.272h0.847zM29.096 22.148v0.080c0 0.128-0.017 0.243-0.052 0.345s-0.084 0.189-0.147 0.26c-0.063 0.071-0.139 0.125-0.227 0.163s-0.184 0.057-0.291 0.057c-0.106 0-0.203-0.019-0.291-0.057s-0.163-0.092-0.227-0.163c-0.064-0.072-0.114-0.159-0.149-0.26s-0.052-0.217-0.052-0.345v-0.080c0-0.129 0.017-0.244 0.052-0.345s0.084-0.189 0.147-0.26c0.064-0.072 0.14-0.127 0.227-0.164s0.185-0.057 0.291-0.057c0.106 0 0.203 0.019 0.291 0.057s0.164 0.093 0.227 0.164c0.064 0.072 0.113 0.159 0.148 0.26s0.053 0.216 0.053 0.345zM28.745 22.228v-0.082c0-0.090-0.008-0.168-0.024-0.236s-0.040-0.125-0.072-0.171c-0.032-0.046-0.070-0.081-0.116-0.104s-0.098-0.036-0.156-0.036-0.111 0.012-0.156 0.036c-0.045 0.023-0.083 0.058-0.115 0.104s-0.054 0.103-0.071 0.171c-0.016 0.068-0.024 0.147-0.024 0.236v0.082c0 0.089 0.008 0.167 0.024 0.236s0.040 0.125 0.072 0.172c0.032 0.046 0.070 0.081 0.116 0.105s0.098 0.036 0.156 0.036c0.059 0 0.111-0.012 0.156-0.036s0.084-0.059 0.115-0.105c0.031-0.047 0.054-0.105 0.071-0.172s0.024-0.147 0.024-0.236zM30.223 22.589c0-0.030-0.005-0.057-0.014-0.081s-0.025-0.047-0.049-0.067c-0.024-0.021-0.057-0.041-0.101-0.061s-0.099-0.041-0.168-0.063c-0.076-0.025-0.149-0.052-0.218-0.083s-0.128-0.067-0.181-0.108c-0.052-0.042-0.093-0.090-0.123-0.145s-0.044-0.118-0.044-0.191c0-0.070 0.015-0.134 0.046-0.191s0.074-0.107 0.13-0.148c0.056-0.042 0.121-0.074 0.197-0.096s0.16-0.034 0.251-0.034c0.124 0 0.233 0.022 0.325 0.067s0.164 0.106 0.215 0.184c0.052 0.078 0.078 0.167 0.078 0.267h-0.345c0-0.049-0.010-0.093-0.031-0.13s-0.051-0.068-0.093-0.089c-0.041-0.022-0.093-0.032-0.155-0.032-0.060 0-0.11 0.009-0.15 0.028s-0.070 0.042-0.090 0.073c-0.020 0.030-0.030 0.064-0.030 0.102 0 0.029 0.007 0.054 0.021 0.078s0.036 0.045 0.065 0.065c0.029 0.020 0.064 0.039 0.105 0.057s0.090 0.035 0.145 0.052c0.092 0.028 0.172 0.059 0.242 0.094s0.129 0.074 0.176 0.117c0.047 0.043 0.083 0.092 0.106 0.147s0.036 0.117 0.036 0.186c0 0.073-0.014 0.139-0.043 0.197s-0.070 0.107-0.124 0.147-0.118 0.071-0.193 0.091c-0.075 0.021-0.159 0.031-0.251 0.031-0.083 0-0.166-0.011-0.247-0.032s-0.155-0.056-0.221-0.101c-0.066-0.045-0.118-0.102-0.157-0.171s-0.059-0.152-0.059-0.247h0.348c0 0.052 0.008 0.097 0.024 0.133s0.039 0.066 0.068 0.088c0.030 0.022 0.066 0.039 0.107 0.049s0.087 0.015 0.137 0.015c0.060 0 0.11-0.009 0.148-0.025s0.068-0.041 0.087-0.071c0.019-0.030 0.029-0.064 0.029-0.102zM31.56 21.345v1.685h-0.346v-1.685h0.346zM32.078 21.345v0.272h-1.375v-0.272h1.375zM33.407 22.759v0.271h-0.897v-0.271h0.897zM32.623 21.345v1.685h-0.347v-1.685h0.347zM33.29 22.031v0.264h-0.78v-0.264h0.78zM33.406 21.345v0.272h-0.896v-0.272h0.896zM33.609 21.345h0.628c0.129 0 0.24 0.019 0.332 0.058s0.165 0.096 0.215 0.171c0.050 0.076 0.075 0.169 0.075 0.279 0 0.090-0.015 0.168-0.046 0.233s-0.073 0.118-0.128 0.161c-0.055 0.042-0.119 0.076-0.193 0.102l-0.11 0.058h-0.546l-0.002-0.271h0.406c0.061 0 0.111-0.011 0.152-0.032s0.070-0.052 0.090-0.090c0.021-0.039 0.031-0.083 0.031-0.134 0-0.054-0.010-0.101-0.030-0.14s-0.051-0.069-0.091-0.090c-0.041-0.021-0.092-0.031-0.154-0.031h-0.281v1.413h-0.347v-1.685zM34.552 23.030l-0.384-0.751 0.367-0.002 0.389 0.737v0.016h-0.372zM36.374 22.429h-0.429v-0.271h0.429c0.066 0 0.12-0.011 0.162-0.032s0.072-0.053 0.091-0.093c0.019-0.039 0.029-0.084 0.029-0.133s-0.010-0.097-0.029-0.14c-0.019-0.043-0.050-0.078-0.091-0.104s-0.096-0.039-0.162-0.039h-0.309v1.413h-0.347v-1.685h0.656c0.132 0 0.245 0.024 0.339 0.072s0.167 0.112 0.218 0.196c0.050 0.083 0.075 0.179 0.075 0.286 0 0.109-0.025 0.203-0.075 0.282s-0.123 0.141-0.218 0.184c-0.094 0.043-0.207 0.065-0.339 0.065zM38.377 22.759v0.271h-0.897v-0.271h0.897zM37.593 21.345v1.685h-0.347v-1.685h0.347zM38.26 22.031v0.264h-0.78v-0.264h0.78zM38.376 21.345v0.272h-0.896v-0.272h0.896zM39.356 21.345v1.685h-0.346v-1.685h0.346zM39.874 21.345v0.272h-1.375v-0.272h1.375zM41.203 22.759v0.271h-0.897v-0.271h0.897zM40.42 21.345v1.685h-0.347v-1.685h0.347zM41.086 22.031v0.264h-0.78v-0.264h0.78zM41.202 21.345v0.272h-0.896v-0.272h0.896zM41.406 21.345h0.629c0.129 0 0.24 0.019 0.332 0.058s0.165 0.096 0.215 0.171 0.075 0.169 0.075 0.279c0 0.090-0.015 0.168-0.046 0.233s-0.073 0.118-0.128 0.161c-0.055 0.042-0.119 0.076-0.193 0.102l-0.11 0.058h-0.546l-0.002-0.271h0.406c0.061 0 0.111-0.011 0.152-0.032s0.070-0.052 0.090-0.090c0.021-0.039 0.031-0.083 0.031-0.134 0-0.054-0.010-0.101-0.030-0.14s-0.051-0.069-0.091-0.090c-0.041-0.021-0.092-0.031-0.154-0.031h-0.281v1.413h-0.347v-1.685zM42.348 23.030l-0.384-0.751 0.367-0.002 0.389 0.737v0.016h-0.371zM43.802 22.589c0-0.030-0.005-0.057-0.014-0.081s-0.025-0.047-0.049-0.067c-0.024-0.021-0.058-0.041-0.101-0.061s-0.099-0.041-0.168-0.063c-0.077-0.025-0.149-0.052-0.218-0.083s-0.128-0.067-0.181-0.108c-0.052-0.042-0.092-0.090-0.123-0.145-0.029-0.055-0.044-0.118-0.044-0.191 0-0.070 0.015-0.134 0.046-0.191s0.074-0.107 0.13-0.148c0.056-0.042 0.121-0.074 0.197-0.096s0.16-0.034 0.251-0.034c0.124 0 0.233 0.022 0.326 0.067s0.164 0.106 0.215 0.184c0.052 0.078 0.078 0.167 0.078 0.267h-0.345c0-0.049-0.011-0.093-0.031-0.13s-0.051-0.068-0.093-0.089c-0.041-0.022-0.092-0.032-0.155-0.032-0.060 0-0.111 0.009-0.151 0.028s-0.070 0.042-0.090 0.073c-0.020 0.030-0.030 0.064-0.030 0.102 0 0.029 0.007 0.054 0.021 0.078s0.036 0.045 0.065 0.065c0.028 0.020 0.064 0.039 0.105 0.057s0.090 0.035 0.145 0.052c0.092 0.028 0.172 0.059 0.242 0.094s0.129 0.074 0.176 0.117c0.047 0.043 0.083 0.092 0.107 0.147s0.036 0.117 0.036 0.186c0 0.073-0.014 0.139-0.043 0.197s-0.070 0.107-0.124 0.147c-0.054 0.040-0.119 0.071-0.193 0.091s-0.159 0.031-0.251 0.031c-0.083 0-0.166-0.011-0.247-0.032s-0.155-0.056-0.221-0.101c-0.066-0.045-0.118-0.102-0.157-0.171s-0.059-0.152-0.059-0.247h0.348c0 0.052 0.008 0.097 0.025 0.133s0.039 0.066 0.068 0.088c0.030 0.022 0.066 0.039 0.106 0.049 0.042 0.010 0.087 0.015 0.137 0.015 0.060 0 0.109-0.009 0.148-0.025s0.068-0.041 0.087-0.071c0.019-0.030 0.029-0.064 0.029-0.102z"></path>
</symbol>
<!-- CLIENTE 5 -->
<symbol id="icon-Cliente-5" viewBox="0 0 67 32">
<path  d="M23.213 23.238c0.096 0.109 0.148 0.246 0.145 0.386 0.005 0.091-0.013 0.183-0.052 0.267s-0.098 0.16-0.173 0.22c-0.187 0.129-0.419 0.192-0.653 0.178h-1.147v-2.446h1.124c0.222-0.014 0.442 0.044 0.623 0.163 0.073 0.056 0.13 0.126 0.168 0.205s0.055 0.166 0.050 0.252c0.007 0.135-0.040 0.268-0.131 0.374-0.087 0.097-0.208 0.165-0.342 0.191 0.152 0.025 0.29 0.1 0.388 0.209zM21.867 22.869h0.48c0.109 0.007 0.218-0.021 0.305-0.081 0.036-0.030 0.064-0.067 0.082-0.108s0.025-0.086 0.021-0.131c0.003-0.044-0.004-0.089-0.022-0.13s-0.045-0.079-0.080-0.109c-0.090-0.061-0.202-0.091-0.314-0.082h-0.472v0.642zM22.7 23.807c0.039-0.031 0.069-0.069 0.089-0.112s0.028-0.090 0.025-0.136c0.003-0.047-0.006-0.094-0.026-0.138s-0.051-0.082-0.090-0.113c-0.094-0.064-0.21-0.095-0.326-0.088h-0.504v0.673h0.51c0.115 0.006 0.229-0.024 0.322-0.085z"></path>
<path  d="M25.509 24.29l-0.625-0.956h-0.235v0.956h-0.538v-2.446h1.018c0.257-0.016 0.51 0.058 0.709 0.208 0.142 0.133 0.228 0.308 0.242 0.493s-0.045 0.37-0.166 0.519c-0.126 0.132-0.297 0.22-0.485 0.249l0.666 0.977h-0.585zM24.649 23.001h0.44c0.305 0 0.458-0.123 0.458-0.37 0.003-0.050-0.005-0.101-0.025-0.148s-0.049-0.090-0.088-0.127c-0.096-0.073-0.221-0.109-0.346-0.099h-0.445l0.005 0.744z"></path>
<path  d="M28.448 23.798h-1.071l-0.189 0.492h-0.564l0.984-2.419h0.609l0.98 2.419h-0.564l-0.185-0.492zM28.305 23.427l-0.392-1.032-0.392 1.032h0.783z"></path>
<path  d="M32.127 24.29h-0.534l-1.197-1.663v1.663h-0.532v-2.446h0.532l1.197 1.673v-1.673h0.534v2.446z"></path>
<path  d="M35.173 23.704c-0.11 0.185-0.279 0.335-0.483 0.431-0.232 0.107-0.49 0.16-0.75 0.154h-0.95v-2.446h0.95c0.26-0.006 0.517 0.045 0.75 0.151 0.204 0.094 0.373 0.243 0.483 0.427 0.11 0.199 0.167 0.419 0.167 0.642s-0.057 0.443-0.167 0.642zM34.563 23.646c0.152-0.163 0.236-0.37 0.236-0.584s-0.084-0.421-0.236-0.584c-0.184-0.147-0.424-0.222-0.668-0.208h-0.371v1.583h0.371c0.244 0.014 0.484-0.061 0.668-0.208z"></path>
<path  d="M28.783 8.238c0 0 6.889 2.381 6.743 5.828v5.829c0 0-6.884-2.383-6.741-5.829l-0.003-5.828z"></path>
<path  d="M41.663 18.53c1.301-0.82 2.806-1.328 4.377-1.477v-1.825c-1.81 0.639-3.346 1.797-4.377 3.302z"></path>
<path  d="M40.882 19.080c1.065-1.963 2.911-3.479 5.159-4.234v-5.258c0 0-9.811 3.392-9.604 8.3v8.299c0 0 0.437-0.152 1.125-0.436 0-0.265 0-0.533 0.031-0.802 0.203-2.278 1.386-4.39 3.289-5.869z"></path>
<path  d="M39.949 22.163c0.051-0.576 0.166-1.145 0.343-1.699-1.185 1.278-1.902 2.864-2.052 4.535-0.014 0.158-0.022 0.315-0.026 0.478 0.557-0.245 1.206-0.551 1.887-0.911-0.174-0.79-0.225-1.599-0.153-2.403z"></path>
<path  d="M40.339 22.193c-0.065 0.727-0.025 1.459 0.122 2.176 2.681-1.469 5.692-3.738 5.576-6.48v-0.239c-1.915 0.196-3.707 0.963-5.1 2.182-0.326 0.756-0.527 1.551-0.598 2.361z"></path>
</symbol>
<!-- CLIENTE 6 -->
<symbol id="icon-Cliente-6" viewBox="0 0 67 32">
<path  d="M33.748 16.393c-0.175-0.233-0.259-0.508-0.239-0.786v-1.139c0-0.349 0.079-0.615 0.238-0.796s0.43-0.272 0.816-0.271c0.362 0 0.62 0.077 0.772 0.232 0.166 0.197 0.247 0.438 0.228 0.681v0.268h-0.648v-0.271c0.002-0.089-0.004-0.178-0.019-0.265-0.009-0.060-0.042-0.116-0.093-0.158-0.067-0.045-0.15-0.067-0.235-0.061-0.089-0.006-0.177 0.017-0.247 0.065-0.056 0.046-0.094 0.107-0.107 0.174-0.019 0.093-0.027 0.187-0.025 0.282v1.382c-0.010 0.133 0.018 0.267 0.083 0.388 0.032 0.041 0.077 0.074 0.129 0.094s0.11 0.028 0.167 0.022c0.083 0.006 0.165-0.017 0.23-0.063 0.053-0.045 0.087-0.104 0.097-0.168 0.015-0.092 0.022-0.184 0.020-0.277v-0.28h0.648v0.256c0.018 0.253-0.061 0.505-0.224 0.716-0.149 0.169-0.403 0.254-0.776 0.254s-0.655-0.090-0.815-0.278z"></path>
<path  d="M36.447 16.405c-0.164-0.177-0.246-0.436-0.246-0.777v-1.198c0-0.338 0.082-0.594 0.246-0.768s0.438-0.26 0.821-0.26c0.381 0 0.654 0.087 0.817 0.26s0.247 0.43 0.247 0.768v1.198c0 0.338-0.083 0.598-0.25 0.776s-0.438 0.268-0.815 0.268c-0.377 0-0.656-0.090-0.821-0.267zM37.571 16.117c0.059-0.111 0.085-0.233 0.078-0.355v-1.467c0.008-0.12-0.019-0.239-0.077-0.348-0.033-0.042-0.079-0.075-0.132-0.096s-0.113-0.028-0.171-0.020c-0.058-0.007-0.118 0-0.171 0.021s-0.1 0.053-0.133 0.095c-0.059 0.108-0.086 0.228-0.078 0.348v1.474c-0.008 0.122 0.019 0.244 0.078 0.355 0.038 0.037 0.084 0.067 0.137 0.088s0.109 0.031 0.167 0.031c0.057 0 0.114-0.011 0.167-0.031s0.099-0.050 0.137-0.088v-0.007z"></path>
<path  d="M39.112 13.436h0.698l0.525 2.211 0.537-2.211h0.679l0.069 3.191h-0.502l-0.054-2.218-0.518 2.218h-0.403l-0.537-2.226-0.050 2.226h-0.507l0.063-3.191z"></path>
<path  d="M42.402 13.436h1.087c0.626 0 0.939 0.302 0.939 0.906 0 0.579-0.33 0.867-0.989 0.867h-0.37v1.418h-0.671l0.004-3.191zM43.331 14.8c0.066 0.007 0.134 0.002 0.198-0.015s0.122-0.047 0.171-0.085c0.077-0.108 0.111-0.234 0.097-0.36 0.004-0.097-0.008-0.195-0.032-0.29-0.009-0.032-0.026-0.062-0.049-0.088s-0.052-0.048-0.085-0.064c-0.093-0.039-0.196-0.056-0.299-0.051h-0.26v0.954h0.26z"></path>
<path  d="M45.396 13.436h0.721l0.74 3.191h-0.626l-0.146-0.736h-0.643l-0.151 0.736h-0.634l0.739-3.191zM46.012 15.522l-0.251-1.339-0.251 1.339h0.502z"></path>
<path  d="M47.454 13.436h0.47l0.899 1.82v-1.82h0.557v3.191h-0.447l-0.905-1.9v1.9h-0.576l0.001-3.191z"></path>
<path  d="M50.684 15.41l-0.747-1.97h0.63l0.456 1.265 0.428-1.265h0.616l-0.738 1.97v1.217h-0.644v-1.217z"></path>
<path  d="M34.784 18.022v0.167h-0.548v1.297h-0.23v-1.297h-0.55v-0.167h1.327z"></path>
<path  d="M36.501 19.486h-0.177c-0.018 0.001-0.036-0.004-0.050-0.014-0.013-0.009-0.024-0.020-0.029-0.034l-0.158-0.348h-0.76l-0.158 0.348c-0.005 0.015-0.013 0.028-0.024 0.039-0.014 0.010-0.032 0.015-0.050 0.014h-0.177l0.671-1.463h0.234l0.679 1.458zM35.389 18.942h0.634l-0.268-0.596c-0.020-0.045-0.036-0.091-0.050-0.138-0.009 0.028-0.017 0.054-0.025 0.078l-0.024 0.061-0.266 0.594z"></path>
<path  d="M37.658 19.342c0.042 0.002 0.084 0.002 0.126 0 0.036-0.003 0.072-0.009 0.107-0.017 0.033-0.007 0.065-0.016 0.097-0.027 0.030-0.010 0.059-0.023 0.090-0.036v-0.329h-0.268c-0.007 0-0.013-0.001-0.020-0.003s-0.012-0.005-0.017-0.009c-0.004-0.003-0.008-0.007-0.010-0.012s-0.003-0.010-0.003-0.015v-0.112h0.521v0.561c-0.042 0.026-0.087 0.049-0.134 0.070-0.048 0.020-0.098 0.037-0.149 0.050-0.055 0.014-0.111 0.024-0.168 0.030-0.065 0.006-0.13 0.009-0.196 0.009-0.116 0.001-0.231-0.018-0.338-0.054-0.1-0.035-0.192-0.087-0.268-0.153-0.075-0.067-0.134-0.145-0.173-0.232-0.042-0.097-0.063-0.2-0.062-0.304-0.001-0.104 0.019-0.208 0.060-0.306 0.039-0.087 0.098-0.166 0.173-0.232 0.077-0.066 0.168-0.117 0.268-0.152 0.115-0.037 0.237-0.056 0.36-0.054 0.063-0 0.125 0.004 0.187 0.013 0.055 0.008 0.108 0.020 0.16 0.037 0.047 0.015 0.092 0.035 0.134 0.058 0.041 0.023 0.080 0.048 0.117 0.076l-0.064 0.090c-0.005 0.008-0.013 0.015-0.022 0.020s-0.020 0.008-0.031 0.008c-0.015-0-0.029-0.004-0.042-0.012-0.020-0.009-0.042-0.021-0.066-0.035-0.029-0.015-0.059-0.029-0.090-0.039-0.040-0.014-0.081-0.025-0.123-0.032-0.056-0.009-0.113-0.013-0.17-0.013-0.089-0.001-0.176 0.013-0.259 0.041-0.075 0.026-0.142 0.065-0.197 0.116-0.056 0.053-0.098 0.115-0.125 0.182-0.060 0.159-0.060 0.329 0 0.488 0.029 0.069 0.075 0.132 0.134 0.184 0.055 0.050 0.122 0.090 0.196 0.116 0.085 0.025 0.176 0.035 0.266 0.029z"></path>
<path  d="M39.797 19.319h0.733v0.167h-0.957v-1.463h0.23l-0.006 1.297z"></path>
<path  d="M41.292 19.486h-0.23v-1.463h0.23v1.463z"></path>
<path  d="M42.146 18.029c0.014 0.007 0.026 0.016 0.035 0.027l0.981 1.103c-0.001-0.017-0.001-0.035 0-0.052 0-0.016 0-0.032 0-0.047v-1.043h0.2v1.469h-0.115c-0.017 0.001-0.034-0.002-0.050-0.008-0.014-0.007-0.026-0.017-0.036-0.028l-0.98-1.102c0 0.017 0 0.034 0 0.050s0 0.031 0 0.045v1.043h-0.192v-1.464h0.119c0.013 0 0.026 0.002 0.038 0.007z"></path>
<path  d="M45.051 18.022v0.161h-0.813v0.483h0.659v0.155h-0.659v0.499h0.813v0.161h-1.049v-1.46h1.049z"></path>
<path  d="M21.002 8.985l10.191 2.498v8.754l-10.191-2.497v-8.755zM20.349 8.238v9.926l11.497 2.819v-9.925l-11.497-2.82z"></path>
<path  d="M26.51 25.592l-11.498-2.821v-9.925l11.498 2.82v9.926z"></path>
<path  d="M20.539 8.872l10.058 2.467-4.277 3.694-10.059-2.468 4.279-3.693zM20.349 8.238l-5.336 4.607 11.498 2.82 5.335-4.607-11.497-2.82z"></path>
<path  d="M27.157 25.033l4.688-4.048-4.688-1.151v5.199z"></path>
</symbol>
<!-- SVG FORMULARIO -->
<symbol id="icon-Nombre" viewBox="0 0 32 32">
<path d="M16 16c4.42 0 8-3.58 8-8s-3.58-8-8-8c-4.42 0-8 3.58-8 8s3.58 8 8 8zM16 20c-5.34 0-16 2.68-16 8v2c0 1.1 0.9 2 2 2h28c1.1 0 2-0.9 2-2v-2c0-5.32-10.66-8-16-8z"></path>
</symbol>
<symbol id="icon-Telefono" viewBox="0 0 32 32">
<path d="M27.419 20.852l-4.201-0.48c-1.009-0.116-2.002 0.232-2.713 0.943l-3.044 3.044c-4.681-2.382-8.519-6.203-10.901-10.901l3.060-3.060c0.711-0.711 1.059-1.704 0.943-2.713l-0.48-4.168c-0.198-1.671-1.604-2.928-3.292-2.928h-2.862c-1.869 0-3.424 1.555-3.308 3.424 0.877 14.126 12.174 25.408 26.284 26.284 1.869 0.116 3.424-1.439 3.424-3.308v-2.861c0.016-1.671-1.241-3.077-2.911-3.275z"></path>
</symbol>
<symbol id="icon-Correo" viewBox="0 0 43 32">
<path d="M37.333 0h-32c-2.2 0-3.98 1.8-3.98 4l-0.020 24c0 2.2 1.8 4 4 4h32c2.2 0 4-1.8 4-4v-24c0-2.2-1.8-4-4-4zM36.533 8.5l-14.14 8.84c-0.64 0.4-1.48 0.4-2.12 0l-14.14-8.84c-0.5-0.32-0.8-0.86-0.8-1.44 0-1.34 1.46-2.14 2.6-1.44l13.4 8.38 13.4-8.38c1.14-0.7 2.6 0.1 2.6 1.44 0 0.58-0.3 1.12-0.8 1.44z"></path>
</symbol>
<symbol id="icon-enviar-cono" viewBox="0 0 32 32">
<path  d="M32 0l-32 18 10.227 3.788 15.773-14.788-11.998 16.186 0.010 0.004-0.012-0.004v8.814l5.735-6.691 7.265 2.691 5-28z"></path>
</symbol>
</defs>
</svg>
